<svg width="800" height="253" viewBox="0 0 800 253" fill="none" xmlns="http://www.w3.org/2000/svg">
<g clip-path="url(#clip0_4030_105917)">
<rect width="800" height="253" fill="#EEF0F3"/>
<rect x="547" y="-245" width="411" height="543" fill="#E1E4EB"/>
<path d="M89.373 27.8231C115.546 27.8231 136.763 6.60607 136.763 -19.5665C136.763 -45.739 115.546 -66.9561 89.373 -66.9561C63.2004 -66.9561 41.9834 -45.739 41.9834 -19.5665C41.9834 6.60607 63.2004 27.8231 89.373 27.8231Z" fill="#5DE2F8"/>
<path d="M50.1354 67.9559C76.308 67.9559 97.525 46.7389 97.525 20.5663C97.525 -5.60621 76.308 -26.8232 50.1354 -26.8232C23.9629 -26.8232 2.74585 -5.60621 2.74585 20.5663C2.74585 46.7389 23.9629 67.9559 50.1354 67.9559Z" fill="#CED2DB"/>
<path d="M44.3124 -26.5545C43.6853 -26.4649 43.0583 -26.3754 42.4312 -26.2858C41.8937 -22.2545 41.8041 -18.0441 42.3416 -13.7441C45.5666 12.2351 69.2166 30.6892 95.1958 27.4642C95.8228 27.3746 96.4499 27.2851 97.077 27.1955C97.6145 23.1642 97.7041 18.9538 97.1666 14.6538C93.9416 -11.2358 70.2916 -29.7795 44.3124 -26.5545Z" fill="#0052FF"/>
<path d="M8.38958 108C34.5621 108 55.7792 86.7828 55.7792 60.6103C55.7792 34.4377 34.5621 13.2207 8.38958 13.2207C-17.783 13.2207 -39 34.4377 -39 60.6103C-39 86.7828 -17.783 108 8.38958 108Z" fill="#5DE2F8"/>
<path d="M55.5104 54.7879C56.0479 59.1775 55.9583 63.4775 55.3312 67.6879C29.6208 70.5546 6.32915 52.19 3.10415 26.39C2.56665 22.0004 2.65624 17.7004 3.28332 13.49C28.9937 10.6233 52.2854 28.9879 55.5104 54.7879Z" fill="#0052FF"/>
<path fill-rule="evenodd" clip-rule="evenodd" d="M91.098 -23.5195L-16.2228 89.7139L-17.5232 88.4814L89.7976 -24.752L91.098 -23.5195Z" fill="#0A0B0D"/>
<path d="M17.0791 54.5188L42.5208 27.6438C42.0729 27.1959 41.7145 26.748 41.2666 26.3896L15.825 53.2647C16.2729 53.7126 16.7208 54.1605 17.0791 54.5188Z" fill="#0A0B0D"/>
<path d="M80.952 -15.4463L54.4353 12.5933C54.8832 13.0412 55.2415 13.4891 55.6895 13.8475L82.2957 -14.2817C81.8478 -14.64 81.4895 -15.088 80.952 -15.4463Z" fill="#0A0B0D"/>
<path d="M695.373 160.823C721.546 160.823 742.763 139.606 742.763 113.434C742.763 87.261 721.546 66.0439 695.373 66.0439C669.2 66.0439 647.983 87.261 647.983 113.434C647.983 139.606 669.2 160.823 695.373 160.823Z" fill="#5DE2F8"/>
<path d="M656.135 200.956C682.308 200.956 703.525 179.739 703.525 153.566C703.525 127.394 682.308 106.177 656.135 106.177C629.963 106.177 608.746 127.394 608.746 153.566C608.746 179.739 629.963 200.956 656.135 200.956Z" fill="#CED2DB"/>
<path d="M650.312 106.445C649.685 106.535 649.058 106.625 648.431 106.714C647.894 110.745 647.804 114.956 648.342 119.256C651.567 145.235 675.217 163.689 701.196 160.464C701.823 160.375 702.45 160.285 703.077 160.195C703.615 156.164 703.704 151.954 703.167 147.654C699.942 121.764 676.292 103.22 650.312 106.445Z" fill="#0052FF"/>
<path d="M734.611 120.779C760.783 120.779 782 99.5621 782 73.3896C782 47.217 760.783 26 734.611 26C708.438 26 687.221 47.217 687.221 73.3896C687.221 99.5621 708.438 120.779 734.611 120.779Z" fill="#0052FF"/>
<path d="M614.39 241C640.562 241 661.779 219.783 661.779 193.61C661.779 167.438 640.562 146.221 614.39 146.221C588.217 146.221 567 167.438 567 193.61C567 219.783 588.217 241 614.39 241Z" fill="#5DE2F8"/>
<path d="M661.51 187.788C662.048 192.178 661.958 196.478 661.331 200.688C635.621 203.555 612.329 185.19 609.104 159.39C608.567 155 608.656 150.7 609.283 146.49C634.994 143.623 658.285 161.988 661.51 187.788Z" fill="#0052FF"/>
<path d="M734.611 120.779C760.783 120.779 782 99.5621 782 73.3896C782 47.217 760.783 26 734.611 26C708.438 26 687.221 47.217 687.221 73.3896C687.221 99.5621 708.438 120.779 734.611 120.779Z" fill="#FFD200"/>
<path d="M734.61 112.717C756.33 112.717 773.937 95.1093 773.937 73.3896C773.937 51.6698 756.33 34.0625 734.61 34.0625C712.891 34.0625 695.283 51.6698 695.283 73.3896C695.283 95.1093 712.891 112.717 734.61 112.717Z" fill="#FFD200"/>
<path d="M734.61 104.654C751.877 104.654 765.875 90.6565 765.875 73.3896C765.875 56.1226 751.877 42.125 734.61 42.125C717.343 42.125 703.346 56.1226 703.346 73.3896C703.346 90.6565 717.343 104.654 734.61 104.654Z" fill="#FFD200"/>
<path fill-rule="evenodd" clip-rule="evenodd" d="M721.262 57.9811C718.64 57.9811 716.515 60.1068 716.515 62.729C716.515 65.3512 718.64 67.477 721.262 67.477C723.885 67.477 726.01 65.3512 726.01 62.729C726.01 60.1068 723.885 57.9811 721.262 57.9811ZM714.723 62.729C714.723 59.1173 717.651 56.1895 721.262 56.1895C724.874 56.1895 727.802 59.1173 727.802 62.729C727.802 66.3407 724.874 69.2686 721.262 69.2686C717.651 69.2686 714.723 66.3407 714.723 62.729Z" fill="#0A0B0D"/>
<path fill-rule="evenodd" clip-rule="evenodd" d="M747.689 80.1979C745.067 80.1979 742.942 82.3236 742.942 84.9458C742.942 87.568 745.067 89.6937 747.689 89.6937C750.312 89.6937 752.437 87.568 752.437 84.9458C752.437 82.3236 750.312 80.1979 747.689 80.1979ZM741.15 84.9458C741.15 81.3341 744.078 78.4062 747.689 78.4062C751.301 78.4062 754.229 81.3341 754.229 84.9458C754.229 88.5575 751.301 91.4854 747.689 91.4854C744.078 91.4854 741.15 88.5575 741.15 84.9458Z" fill="#0A0B0D"/>
<path fill-rule="evenodd" clip-rule="evenodd" d="M752.287 55.9933L717.977 92.9016L716.665 91.6818L750.975 54.7734L752.287 55.9933Z" fill="#0A0B0D"/>
<path fill-rule="evenodd" clip-rule="evenodd" d="M697.098 109.481L589.777 222.714L588.477 221.481L695.798 108.248L697.098 109.481Z" fill="#0A0B0D"/>
<path d="M623.079 187.519L648.521 160.644C648.073 160.196 647.715 159.748 647.267 159.39L621.825 186.265C622.273 186.713 622.721 187.16 623.079 187.519Z" fill="#0A0B0D"/>
<path d="M686.952 117.554L660.435 145.593C660.883 146.041 661.242 146.489 661.689 146.847L688.296 118.718C687.848 118.36 687.489 117.912 686.952 117.554Z" fill="#0A0B0D"/>
<path fill-rule="evenodd" clip-rule="evenodd" d="M734.611 38.363C715.266 38.363 699.583 54.0451 699.583 73.39C699.583 92.735 715.266 108.417 734.611 108.417C753.955 108.417 769.638 92.735 769.638 73.39C769.638 54.0451 753.955 38.363 734.611 38.363ZM697.792 73.39C697.792 53.0556 714.276 36.5713 734.611 36.5713C754.945 36.5713 771.429 53.0556 771.429 73.39C771.429 93.7245 754.945 110.209 734.611 110.209C714.276 110.209 697.792 93.7245 697.792 73.39Z" fill="#0A0B0D"/>
<path fill-rule="evenodd" clip-rule="evenodd" d="M698.047 106.963L698.24 119.691L696.448 119.718L696.283 108.795L685.45 109.044L685.409 107.252L698.047 106.963Z" fill="#0A0B0D"/>
<path d="M341.5 192.437C386.546 192.437 423.062 155.921 423.062 110.875C423.062 65.8293 386.546 29.3125 341.5 29.3125C296.454 29.3125 259.938 65.8293 259.938 110.875C259.938 155.921 296.454 192.437 341.5 192.437Z" fill="#0052FF"/>
<path d="M341.5 61.9375L358.628 93.7469L390.438 110.875L358.628 128.003L341.5 159.812L324.372 128.003L292.562 110.875L324.372 93.7469L341.5 61.9375Z" fill="#FEFFFF"/>
<rect x="227.312" y="184.281" width="32.625" height="73.4062" fill="#CED2DB"/>
<rect x="423.062" y="184.281" width="32.625" height="73.4062" fill="#CED2DB"/>
<rect x="227.312" y="225.062" width="228.375" height="32.625" fill="#101114"/>
</g>
<defs>
<clipPath id="clip0_4030_105917">
<rect width="800" height="253" fill="white"/>
</clipPath>
</defs>
</svg>
