<svg width="2250" height="1290" viewBox="0 0 2250 1290" fill="none" xmlns="http://www.w3.org/2000/svg">
<rect width="2250" height="1290" fill="#5EBC84"/>
<path d="M724.517 127.144H891.517" stroke="white" stroke-width="4"/>
<path d="M724.517 195.7H891.517" stroke="white" stroke-width="4"/>
<path d="M208.871 218.95H161.871V172.95H208.871V218.95Z" fill="white" stroke="white" stroke-width="4"/>
<path d="M185.142 100C132.206 100 89.2921 142.914 89.2921 195.85C89.2921 248.787 132.206 291.7 185.142 291.7C238.079 291.7 280.992 248.787 280.992 195.85C280.992 142.914 238.079 100 185.142 100Z" stroke="white" stroke-width="4" stroke-miterlimit="10" stroke-dasharray="15 15"/>
<path d="M186.849 195.7L484.661 195.7L484.661 887.2" stroke="white" stroke-width="4"/>
<path d="M466.785 875.91L483.991 875.91L501.193 875.91L492.58 890.788L492.578 890.792L483.989 905.699L475.373 890.79L475.373 890.789L466.785 875.91Z" fill="white" stroke="white" stroke-width="4"/>
<path d="M2125.46 886.058H2142.67H2159.87L2151.26 871.18L2151.26 871.177L2142.67 856.27L2134.05 871.178L2134.05 871.179L2125.46 886.058Z" fill="white" stroke="white" stroke-width="4"/>
<path d="M314.451 541.88C304.56 541.88 296.541 549.899 296.541 559.79C296.541 569.682 304.56 577.7 314.451 577.7C324.343 577.7 332.361 569.682 332.361 559.79C332.361 549.899 324.343 541.88 314.451 541.88Z" stroke="white" stroke-width="4" stroke-miterlimit="10"/>
<path d="M314.451 485.001C304.56 485.001 296.541 493.019 296.541 502.911C296.541 512.802 304.56 520.821 314.451 520.821C324.343 520.821 332.361 512.802 332.361 502.911C332.361 493.019 324.343 485.001 314.451 485.001Z" fill="white" stroke="white" stroke-width="4" stroke-miterlimit="10"/>
<path d="M314.451 428.091C304.56 428.091 296.541 436.109 296.541 446C296.541 455.892 304.56 463.91 314.451 463.91C324.343 463.91 332.361 455.892 332.361 446C332.361 436.109 324.343 428.091 314.451 428.091Z" stroke="white" stroke-width="4" stroke-miterlimit="10"/>
<path d="M314.451 371.211C304.56 371.211 296.541 379.229 296.541 389.121C296.541 399.012 304.56 407.031 314.451 407.031C324.343 407.031 332.361 399.012 332.361 389.121C332.361 379.229 324.343 371.211 314.451 371.211Z" fill="white" stroke="white" stroke-width="4" stroke-miterlimit="10"/>
<path d="M314.451 314.302C304.56 314.302 296.541 322.321 296.541 332.212C296.541 342.104 304.56 350.122 314.451 350.122C324.343 350.122 332.361 342.104 332.361 332.212C332.361 322.321 324.343 314.302 314.451 314.302Z" stroke="white" stroke-width="4" stroke-miterlimit="10"/>
<path d="M377.751 541.88C367.86 541.88 359.841 549.899 359.841 559.79C359.841 569.682 367.86 577.7 377.751 577.7C387.643 577.7 395.661 569.682 395.661 559.79C395.661 549.899 387.643 541.88 377.751 541.88Z" fill="white" stroke="white" stroke-width="4" stroke-miterlimit="10"/>
<path d="M377.751 485.001C367.86 485.001 359.841 493.019 359.841 502.911C359.841 512.802 367.86 520.821 377.751 520.821C387.643 520.821 395.661 512.802 395.661 502.911C395.661 493.019 387.643 485.001 377.751 485.001Z" stroke="white" stroke-width="4" stroke-miterlimit="10"/>
<path d="M377.751 428.091C367.86 428.091 359.841 436.109 359.841 446C359.841 455.892 367.86 463.91 377.751 463.91C387.643 463.91 395.661 455.892 395.661 446C395.661 436.109 387.643 428.091 377.751 428.091Z" fill="white" stroke="white" stroke-width="4" stroke-miterlimit="10"/>
<path d="M377.751 371.211C367.86 371.211 359.841 379.229 359.841 389.121C359.841 399.012 367.86 407.031 377.751 407.031C387.643 407.031 395.661 399.012 395.661 389.121C395.661 379.229 387.643 371.211 377.751 371.211Z" stroke="white" stroke-width="4" stroke-miterlimit="10"/>
<path d="M377.751 314.302C367.86 314.302 359.841 322.321 359.841 332.212C359.841 342.104 367.86 350.122 377.751 350.122C387.643 350.122 395.661 342.104 395.661 332.212C395.661 322.321 387.643 314.302 377.751 314.302Z" fill="white" stroke="white" stroke-width="4" stroke-miterlimit="10"/>
<path d="M236.29 1173.24V1104.12" stroke="white" stroke-width="4" stroke-miterlimit="10"/>
<path d="M236.279 1104.1L88 1104.1L88 1173.2L236.279 1173.2L236.279 1104.1Z" stroke="white" stroke-width="4" stroke-miterlimit="10"/>
<path d="M162.139 1138.68H332.661" stroke="white" stroke-width="4" stroke-miterlimit="10"/>
<path d="M332.661 1173.24V1104.12" stroke="white" stroke-width="4" stroke-miterlimit="10"/>
<path d="M184.359 973.998V1043.09" stroke="white" stroke-width="4" stroke-miterlimit="10"/>
<path d="M184.382 1043.09H332.661V973.998H184.382V1043.09Z" stroke="white" stroke-width="4" stroke-miterlimit="10"/>
<path d="M258.51 1008.56H88.0107" stroke="white" stroke-width="4" stroke-miterlimit="10"/>
<path d="M88.0117 973.998V1043.09" stroke="white" stroke-width="4" stroke-miterlimit="10"/>
<rect x="224.506" y="621.339" width="23.5356" height="249.477" transform="rotate(180 224.506 621.339)" stroke="white" stroke-width="4"/>
<rect x="168.021" y="621.339" width="23.5356" height="249.477" transform="rotate(180 168.021 621.339)" stroke="white" stroke-width="4"/>
<rect x="111.535" y="621.339" width="23.5355" height="249.477" transform="rotate(180 111.535 621.339)" stroke="white" stroke-width="4"/>
<path d="M200.971 494.246L168.021 494.246" stroke="white" stroke-width="4" stroke-linejoin="round"/>
<path d="M144.485 494.246L111.536 494.246" stroke="white" stroke-width="4" stroke-linejoin="round"/>
<path d="M1584.89 271.722L1908.68 271.722" stroke="white" stroke-width="4" stroke-miterlimit="10"/>
<path d="M1751.35 270.685C1751.35 277.152 1746.11 282.394 1739.65 282.394C1733.18 282.394 1727.94 277.152 1727.94 270.685C1727.94 264.219 1733.18 258.977 1739.65 258.977C1746.11 258.977 1751.35 264.219 1751.35 270.685Z" fill="white" stroke="white" stroke-width="4"/>
<path d="M1410.37 198.483L1908.68 198.483" stroke="white" stroke-width="4" stroke-miterlimit="10"/>
<path d="M1635.96 198.903C1635.96 205.37 1630.72 210.612 1624.26 210.612C1617.79 210.612 1612.55 205.37 1612.55 198.903C1612.55 192.437 1617.79 187.195 1624.26 187.195C1630.72 187.195 1635.96 192.437 1635.96 198.903Z" fill="white" stroke="white" stroke-width="4"/>
<path d="M1401.18 127.355L1909.71 127.355" stroke="white" stroke-width="4" stroke-miterlimit="10"/>
<path d="M1827.63 127.143C1827.63 133.755 1822.7 138.851 1816.93 138.851C1811.16 138.851 1806.22 133.755 1806.22 127.143C1806.22 120.531 1811.16 115.435 1816.93 115.435C1822.7 115.435 1827.63 120.531 1827.63 127.143Z" fill="white" stroke="white" stroke-width="4"/>
<path d="M1748.69 1032.06H2143V872.058" stroke="white" stroke-width="4"/>
<path d="M1850.34 498.414L1850.34 753.414" stroke="white" stroke-width="4" stroke-miterlimit="10"/>
<path d="M1850.19 584.113C1903.13 584.113 1946.04 541.199 1946.04 488.263C1946.04 435.326 1903.13 392.413 1850.19 392.413C1797.25 392.413 1754.34 435.326 1754.34 488.263C1754.34 541.199 1797.25 584.113 1850.19 584.113Z" stroke="white" stroke-width="4" stroke-miterlimit="10" stroke-dasharray="15 15"/>
<path d="M1946.04 488.414C1946.04 541.35 1903.13 584.263 1850.19 584.263C1797.25 584.263 1754.34 541.35 1754.34 488.414" stroke="white" stroke-width="4" stroke-miterlimit="10"/>
<ellipse cx="1849.84" cy="752.914" rx="45.4999" ry="45.5" stroke="white" stroke-width="4"/>
<ellipse cx="1849.84" cy="487.914" rx="30.5001" ry="30.5" fill="white" stroke="white" stroke-width="4"/>
<path d="M1819.09 869.413L1746.34 942.163" stroke="white" stroke-width="4" stroke-miterlimit="10"/>
<path d="M1819.09 942.163L1746.34 869.413" stroke="white" stroke-width="4" stroke-miterlimit="10"/>
<path d="M1946.09 869.413L1873.34 942.163" stroke="white" stroke-width="4" stroke-miterlimit="10"/>
<path d="M1946.09 942.163L1873.34 869.413" stroke="white" stroke-width="4" stroke-miterlimit="10"/>
<path d="M649.172 1109.75L904.172 1109.75" stroke="white" stroke-width="4" stroke-miterlimit="10"/>
<path d="M699.554 1109.9C699.554 1076.47 672.453 1049.37 639.021 1049.37C605.59 1049.37 578.488 1076.47 578.488 1109.9C578.488 1143.33 605.59 1170.43 639.021 1170.43C672.453 1170.43 699.554 1143.33 699.554 1109.9Z" stroke="white" stroke-width="4" stroke-miterlimit="10" stroke-dasharray="15 15"/>
<ellipse cx="903.672" cy="1110.25" rx="45.4999" ry="45.5" transform="rotate(-90 903.672 1110.25)" stroke="white" stroke-width="4"/>
<ellipse cx="638.672" cy="1110.25" rx="30.5001" ry="30.5" transform="rotate(-90 638.672 1110.25)" fill="white" stroke="white" stroke-width="4"/>
<path d="M578.488 254.143L651.238 326.893" stroke="white" stroke-width="4" stroke-miterlimit="10"/>
<path d="M651.238 254.143L578.488 326.893" stroke="white" stroke-width="4" stroke-miterlimit="10"/>
<path d="M578.488 127.143L651.238 199.893" stroke="white" stroke-width="4" stroke-miterlimit="10"/>
<path d="M651.238 127.143L578.488 199.893" stroke="white" stroke-width="4" stroke-miterlimit="10"/>
<path d="M1507.06 1105.41H1391.09V1191.15H1507.06V1105.41Z" stroke="white" stroke-width="4" stroke-miterlimit="10"/>
<path d="M1449.07 1148.28H1782.71" stroke="white" stroke-width="4" stroke-miterlimit="10"/>
<path d="M248.826 812.662L378.661 812.662L378.661 885.202L248.826 885.202L248.826 812.662Z" stroke="white" stroke-width="4" stroke-miterlimit="10"/>
<path d="M378.661 812.662L248.826 885.202" stroke="white" stroke-width="4" stroke-miterlimit="10"/>
<path d="M248.826 812.662L378.661 885.202" stroke="white" stroke-width="4" stroke-miterlimit="10"/>
<path d="M2013.17 1109.75L2143 1109.75L2143 1182.29L2013.17 1182.29L2013.17 1109.75Z" stroke="white" stroke-width="4" stroke-miterlimit="10"/>
<path d="M2143 1109.75L2013.17 1182.29" stroke="white" stroke-width="4" stroke-miterlimit="10"/>
<path d="M2013.17 1109.75L2143 1182.29" stroke="white" stroke-width="4" stroke-miterlimit="10"/>
<path d="M88.0002 812.662L217.835 812.662L217.835 885.202L88.0002 885.202L88.0002 812.662Z" stroke="white" stroke-width="4" stroke-miterlimit="10"/>
<path d="M217.835 812.662L88.0002 885.202" stroke="white" stroke-width="4" stroke-miterlimit="10"/>
<path d="M88.0002 812.662L217.835 885.202" stroke="white" stroke-width="4" stroke-miterlimit="10"/>
<path d="M1852.34 1109.75L1982.17 1109.75L1982.17 1182.29L1852.34 1182.29L1852.34 1109.75Z" stroke="white" stroke-width="4" stroke-miterlimit="10"/>
<path d="M1982.17 1109.75L1852.34 1182.29" stroke="white" stroke-width="4" stroke-miterlimit="10"/>
<path d="M1852.34 1109.75L1982.17 1182.29" stroke="white" stroke-width="4" stroke-miterlimit="10"/>
<path d="M248.826 710L378.661 710L378.661 782.54L248.826 782.54L248.826 710Z" stroke="white" stroke-width="4" stroke-miterlimit="10"/>
<path d="M378.661 710L248.826 782.54" stroke="white" stroke-width="4" stroke-miterlimit="10"/>
<path d="M248.826 710L378.661 782.54" stroke="white" stroke-width="4" stroke-miterlimit="10"/>
<path d="M88.0002 710L217.835 710L217.835 782.54L88.0002 782.54L88.0002 710Z" stroke="white" stroke-width="4" stroke-miterlimit="10"/>
<path d="M217.835 710L88.0002 782.54" stroke="white" stroke-width="4" stroke-miterlimit="10"/>
<path d="M88.0002 710L217.835 782.54" stroke="white" stroke-width="4" stroke-miterlimit="10"/>
<path d="M484.661 1173L484.661 943.001" stroke="white" stroke-width="4" stroke-linejoin="round"/>
<path d="M423.661 1173L423.661 943.001" stroke="white" stroke-width="4" stroke-linejoin="round"/>
<rect x="-2" y="2" width="22" height="22" transform="matrix(-1 8.74228e-08 8.74228e-08 1 492.661 1081)" fill="white" stroke="white" stroke-width="4"/>
<rect x="-2" y="2" width="22" height="22" transform="matrix(-1 8.74227e-08 8.74229e-08 1 432.661 988.001)" fill="white" stroke="white" stroke-width="4"/>
<path d="M2096 146.413L2096 117.413L2067 117.413L2067 146.413L2096 146.413Z" stroke="white" stroke-width="4" stroke-miterlimit="10"/>
<path d="M2096 213.414L2096 184.414L2067 184.414L2067 213.414L2096 213.414Z" fill="white" stroke="white" stroke-width="4" stroke-miterlimit="10"/>
<path d="M2096 280.413L2096 252.413L2067 252.413L2067 280.413L2096 280.413Z" stroke="white" stroke-width="4" stroke-miterlimit="10"/>
<path d="M2029 146.413L2029 117.413L2000 117.413L2000 146.413L2029 146.413Z" fill="white" stroke="white" stroke-width="4" stroke-miterlimit="10"/>
<path d="M2163 146.413L2163 117.413L2134 117.413L2134 146.413L2163 146.413Z" fill="white" stroke="white" stroke-width="4" stroke-miterlimit="10"/>
<path d="M2029 213.414L2029 184.414L2000 184.414L2000 213.414L2029 213.414Z" stroke="white" stroke-width="4" stroke-miterlimit="10"/>
<path d="M2163 213.414L2163 184.414L2134 184.414L2134 213.414L2163 213.414Z" stroke="white" stroke-width="4" stroke-miterlimit="10"/>
<path d="M2029 280.413L2029 252.413L2000 252.413L2000 280.413L2029 280.413Z" fill="white" stroke="white" stroke-width="4" stroke-miterlimit="10"/>
<path d="M2163 280.413L2163 252.413L2134 252.413L2134 280.413L2163 280.413Z" fill="white" stroke="white" stroke-width="4" stroke-miterlimit="10"/>
<path d="M2096 348.412L2096 319.412L2067 319.412L2067 348.412L2096 348.412Z" fill="white" stroke="white" stroke-width="4" stroke-miterlimit="10"/>
<path d="M2029 348.412L2029 319.412L2000 319.412L2000 348.412L2029 348.412Z" stroke="white" stroke-width="4" stroke-miterlimit="10"/>
<path d="M2163 348.412L2163 319.412L2134 319.412L2134 348.412L2163 348.412Z" stroke="white" stroke-width="4" stroke-miterlimit="10"/>
<path d="M2096 415.413L2096 387.413L2067 387.413L2067 415.413L2096 415.413Z" stroke="white" stroke-width="4" stroke-miterlimit="10"/>
<path d="M2029 415.413L2029 387.413L2000 387.413L2000 415.413L2029 415.413Z" fill="white" stroke="white" stroke-width="4" stroke-miterlimit="10"/>
<path d="M2163 415.413L2163 387.413L2134 387.413L2134 415.413L2163 415.413Z" fill="white" stroke="white" stroke-width="4" stroke-miterlimit="10"/>
<path d="M2122.37 610.444C2138.04 610.444 2150.75 597.738 2150.75 582.064C2150.75 566.391 2138.04 553.685 2122.37 553.685C2106.7 553.685 2093.99 566.391 2093.99 582.064C2093.99 597.738 2106.7 610.444 2122.37 610.444Z" stroke="white" stroke-width="4" stroke-miterlimit="10"/>
<path d="M2028.38 610.444C2044.05 610.444 2056.76 597.738 2056.76 582.064C2056.76 566.391 2044.05 553.685 2028.38 553.685C2012.71 553.685 2000 566.391 2000 582.064C2000 597.738 2012.71 610.444 2028.38 610.444Z" stroke="white" stroke-width="4" stroke-miterlimit="10"/>
<path d="M2122.37 704.43C2138.04 704.43 2150.75 691.724 2150.75 676.05C2150.75 660.376 2138.04 647.67 2122.37 647.67C2106.7 647.67 2093.99 660.376 2093.99 676.05C2093.99 691.724 2106.7 704.43 2122.37 704.43Z" stroke="white" stroke-width="4" stroke-miterlimit="10"/>
<path d="M2122.37 798.414C2138.04 798.414 2150.75 785.708 2150.75 770.034C2150.75 754.36 2138.04 741.654 2122.37 741.654C2106.7 741.654 2093.99 754.36 2093.99 770.034C2093.99 785.708 2106.7 798.414 2122.37 798.414Z" stroke="white" stroke-width="4" stroke-miterlimit="10"/>
<path d="M2028.38 704.43C2044.05 704.43 2056.76 691.724 2056.76 676.05C2056.76 660.376 2044.05 647.67 2028.38 647.67C2012.71 647.67 2000 660.376 2000 676.05C2000 691.724 2012.71 704.43 2028.38 704.43Z" stroke="white" stroke-width="4" stroke-miterlimit="10"/>
<path d="M2028.38 798.414C2044.05 798.414 2056.76 785.708 2056.76 770.034C2056.76 754.36 2044.05 741.654 2028.38 741.654C2012.71 741.654 2000 754.36 2000 770.034C2000 785.708 2012.71 798.414 2028.38 798.414Z" stroke="white" stroke-width="4" stroke-miterlimit="10"/>
<path d="M1125 541.161L1584.89 815.492L1125 1089.82L665.11 815.492L1125 541.161Z" fill="#B8C9C8"/>
<path d="M1125 200.178L1584.89 474.509L1125 748.84L665.11 474.509L1125 200.178Z" fill="#B8C9C8"/>
<path d="M1125 370.669L1584.89 645L1125 919.331L665.11 645L1125 370.669Z" fill="#C4C4C4"/>
<path d="M1125 370.669L1584.89 645L1125 919.331L665.11 645L1125 370.669Z" fill="#6691FF"/>
<path fill-rule="evenodd" clip-rule="evenodd" d="M1441.98 559.755L1125 748.84L808.017 559.755L1125 370.67L1441.98 559.755Z" fill="#C4C4C4"/>
<path fill-rule="evenodd" clip-rule="evenodd" d="M1441.98 559.755L1125 748.84L808.017 559.755L1125 370.67L1441.98 559.755Z" fill="#0052FF"/>
<path fill-rule="evenodd" clip-rule="evenodd" d="M1441.98 730.11L1125 919.195L808.017 730.11L1125 541.024L1441.98 730.11Z" fill="#0052FF"/>
<path fill-rule="evenodd" clip-rule="evenodd" d="M1299.19 644.933L1125 748.841L950.809 644.933L1125 541.024L1299.19 644.933Z" fill="#0A0B0D"/>
</svg>
